<svg version="1.1" id="Layer_1" xmlns="http://www.w3.org/2000/svg" xmlns:xlink="http://www.w3.org/1999/xlink" x="0px" y="0px"
	 width="100%" viewBox="0 0 1024 1024" enable-background="new 0 0 1024 1024" xml:space="preserve">
<path fill="#000000" opacity="1.000000" stroke="none" 
	d="
M488.778778,758.543396 
	C496.878387,759.927673 503.695618,757.988403 509.865234,753.313660 
	C511.579956,752.014404 513.432251,750.681213 515.437805,750.017761 
	C524.968872,746.865051 532.360046,740.251343 540.545410,734.914124 
	C543.485291,732.997131 545.423218,730.603210 546.274475,727.122620 
	C547.190002,723.379150 548.982605,719.943420 551.268372,716.835144 
	C553.637451,713.613586 552.799866,711.639648 549.114502,710.650391 
	C542.279175,708.815491 536.086731,705.641418 530.178528,701.813538 
	C524.889099,698.386536 520.526367,694.123962 517.929932,688.311768 
	C516.729919,685.625427 514.727112,683.686584 512.700806,681.707703 
	C508.151886,677.265259 503.861389,672.605225 501.232086,666.711304 
	C499.444153,662.703491 498.526764,658.582092 499.277832,654.085449 
	C499.649780,651.858643 501.127686,648.925598 497.998871,647.420532 
	C494.795044,645.879333 491.907379,646.032959 488.900726,648.760010 
	C482.949402,654.157837 476.363770,659.650513 468.253265,660.216064 
	C458.471100,660.898193 450.978210,664.724915 442.878235,669.954102 
	C436.570587,674.026245 433.969391,677.212097 434.065186,684.609253 
	C434.185303,693.882019 428.058289,701.029541 422.999542,709.751404 
	C417.592102,699.356628 412.380219,690.282104 408.215118,679.984009 
	C401.761963,688.243774 396.040070,695.558655 390.327789,702.881042 
	C381.503021,714.193115 371.912872,724.830688 361.868317,735.060852 
	C356.075867,740.960266 351.162354,747.230469 349.618866,755.749573 
	C348.640320,761.150757 346.184113,766.165161 343.792175,771.128540 
	C341.675415,775.520935 343.039246,778.025085 347.899078,778.632751 
	C351.362183,779.065735 354.850342,779.639954 358.321167,779.601196 
	C366.575165,779.509033 373.491974,783.068909 380.144623,787.256531 
	C385.900879,790.879944 388.431976,799.269287 385.792877,805.419373 
	C383.219910,804.376709 382.169006,801.708191 380.138733,800.153687 
	C375.259125,796.417480 373.085724,796.709717 368.493317,800.375671 
	C362.361633,805.270325 355.290527,803.975586 348.552460,801.856506 
	C344.543518,800.595703 341.370697,797.671570 338.728851,794.364258 
	C334.941345,789.622742 330.002106,788.526855 324.383148,789.827881 
	C321.634277,790.464355 318.985321,791.521057 316.267792,792.306824 
	C309.901825,794.147461 303.675018,796.295715 296.764191,795.510742 
	C290.131561,794.757385 283.982605,796.553345 278.480042,800.687256 
	C274.900848,803.376160 271.009705,805.737244 267.014862,807.765686 
	C260.352631,811.148743 253.510086,811.048523 247.005600,807.261841 
	C244.016998,805.522034 241.461273,806.763855 238.945023,807.838257 
	C235.489471,809.313660 232.217880,811.219971 227.976669,813.399475 
	C227.484924,805.851990 230.205429,800.743774 234.983627,796.497803 
	C240.093658,791.956848 239.720505,790.596008 233.560455,787.735474 
	C227.080475,784.726440 220.652695,785.263184 214.124771,787.224854 
	C213.285599,780.649536 220.050171,773.785583 227.846710,772.776917 
	C230.730759,772.403748 234.011581,773.796448 235.637222,769.357666 
	C236.607681,766.707764 239.055923,764.787415 239.107040,761.354004 
	C239.145370,758.780273 238.343231,757.805298 236.279755,756.916809 
	C232.000687,755.074280 227.567734,755.546204 223.182343,756.097473 
	C222.247238,748.921265 234.103699,742.685364 239.918259,744.221802 
	C242.590591,744.927979 245.142487,745.950378 247.755310,743.494690 
	C249.152740,742.181335 251.312927,743.360779 253.013641,743.919434 
	C258.462280,745.709290 263.216675,748.823242 267.773407,752.198853 
	C279.726898,761.053772 291.855835,761.329346 304.552063,753.681030 
	C315.330750,747.188049 323.919464,739.153748 327.304108,726.472290 
	C329.268219,719.113220 334.946350,713.633545 338.086334,706.814331 
	C338.937347,704.966125 339.862823,703.283142 339.683990,701.185974 
	C339.453705,698.484985 339.783173,695.763489 340.819794,693.330994 
	C344.189362,685.424255 345.637207,676.814331 349.745209,669.193848 
	C350.237610,668.280457 350.644196,667.382324 350.343628,666.354614 
	C349.223694,662.525146 349.877350,658.765747 350.700500,654.998718 
	C351.378540,651.895691 350.595184,649.730164 347.019104,649.323975 
	C346.041840,649.212952 344.956421,649.044189 344.156647,648.532837 
	C333.274200,641.575195 321.202026,645.093262 309.600739,644.569214 
	C306.017792,644.407349 303.949066,646.201233 302.681824,649.715149 
	C299.634216,658.166077 296.623383,666.668884 291.958710,674.422302 
	C291.130188,675.799377 290.512115,677.455872 288.834137,678.187378 
	C287.264435,678.109009 286.992554,676.886780 286.812622,675.764099 
	C281.706116,643.902771 266.179810,617.391052 244.990875,593.698914 
	C231.432114,578.538330 220.995163,561.370300 213.083328,542.638367 
	C210.203110,535.819214 208.718155,528.683044 207.722519,521.410339 
	C207.475174,519.603699 207.428558,517.760010 205.413574,516.434570 
	C203.233521,521.458496 202.508362,526.726379 201.478928,531.875488 
	C200.442825,537.057861 198.839966,542.108276 195.184921,545.809448 
	C189.394318,551.673218 181.954590,554.668091 173.769928,555.631836 
	C172.502090,555.781067 171.814178,555.249084 169.351089,553.623718 
	C170.212296,551.314087 172.714203,550.496521 173.999313,548.593140 
	C176.603653,544.736023 180.764679,541.516479 178.452484,535.792786 
	C177.747131,534.046753 179.472885,532.377258 180.415314,530.840515 
	C184.330582,524.456238 188.775620,518.403564 191.925797,511.545227 
	C195.142563,504.541962 196.333145,497.423279 195.197067,489.689758 
	C193.984070,481.432770 194.721939,473.045013 194.945648,464.724426 
	C195.069916,460.102020 193.425964,457.001099 189.163452,455.331787 
	C184.339157,453.442474 181.289383,449.872498 179.432770,445.177094 
	C176.746094,438.382568 174.064240,431.585449 171.476074,424.753143 
	C170.693695,422.687805 172.126984,421.149933 173.471878,419.986694 
	C176.166748,417.655701 175.438400,415.603363 173.719849,413.074402 
	C170.944412,408.990173 166.578720,406.798218 162.127563,403.203491 
	C170.267120,400.231323 176.412811,403.105011 183.139771,405.798859 
	C195.524078,410.758118 196.219818,421.673767 198.316299,432.099121 
	C199.402557,437.500946 200.414246,442.867523 206.057037,446.203430 
	C207.282654,443.613037 206.008774,441.405029 205.691177,439.273102 
	C204.109573,428.656036 204.815292,417.985260 204.670242,407.334045 
	C204.639099,405.046356 205.210709,402.640167 203.580627,400.587921 
	C202.829910,399.642761 203.210159,398.800537 203.810852,397.883209 
	C207.376617,392.437927 206.968414,389.017944 202.540176,384.187347 
	C200.903000,382.401398 198.263840,381.564545 197.431152,378.975922 
	C203.760254,375.999695 213.630569,379.035370 217.883392,385.730560 
	C220.193619,389.367584 223.109451,392.387634 225.685104,395.707428 
	C231.285706,402.926086 230.172958,411.388062 227.706055,419.588623 
	C226.651169,423.095337 225.069717,426.458557 225.343185,430.230621 
	C225.460785,431.852722 225.792450,433.459351 226.331726,435.105011 
	C228.968552,425.042786 233.141098,416.032410 240.598770,408.588654 
	C243.810089,405.383301 243.041840,400.893066 242.006332,396.722595 
	C241.617935,395.158325 240.123840,393.932190 240.656570,391.777069 
	C244.854034,391.912384 248.245438,394.038635 249.864639,397.453552 
	C253.027695,404.124481 255.581863,411.197205 256.222992,418.600861 
	C256.889984,426.303131 253.887634,432.966644 248.405884,438.413635 
	C245.189011,441.610077 242.248764,445.045959 240.233032,449.084839 
	C237.339111,454.883331 236.424774,460.622803 238.758774,467.278442 
	C242.660477,478.404510 245.928970,489.915192 245.070160,501.908997 
	C244.578812,508.770660 246.844772,514.178894 250.935059,519.352783 
	C254.449753,523.798523 259.061127,527.292664 261.951141,532.252319 
	C264.995697,537.477173 270.018005,542.219299 275.604950,545.215088 
	C279.842529,547.487366 283.121246,550.777039 285.146606,555.129578 
	C286.450958,557.932678 288.285248,559.237000 291.415680,558.766785 
	C294.286072,558.335632 297.078644,558.961365 299.738312,559.997742 
	C302.552917,561.094360 304.170197,560.479736 304.690399,557.308594 
	C305.532410,552.175903 306.830811,547.172791 310.314148,543.087097 
	C311.601135,541.577576 310.712189,540.385498 310.147980,538.988037 
	C304.559357,525.145813 302.838959,511.351379 310.901764,497.754822 
	C311.630157,496.526489 311.713196,495.237183 311.483459,493.895294 
	C309.902069,484.658295 312.855927,476.449982 317.479553,468.743317 
	C319.312073,465.688904 320.537750,462.753998 320.892303,459.085968 
	C321.644196,451.307373 324.794098,444.309082 329.907776,438.328613 
	C331.471985,436.499298 332.504089,434.680847 332.806305,432.185516 
	C333.556488,425.991852 335.236176,419.699463 339.162720,415.029175 
	C346.244232,406.606140 346.267212,395.025635 353.006500,386.528717 
	C354.315735,384.878052 353.420410,381.632111 354.039185,379.251221 
	C355.729828,372.746094 358.051544,366.468689 363.354004,361.918427 
	C366.089142,359.571350 365.968628,357.413483 364.031830,354.594208 
	C358.143036,346.022156 352.580994,344.984436 342.119141,352.718323 
	C337.133545,356.403870 335.159119,362.219238 333.522949,368.439575 
	C329.977631,366.276123 330.176270,361.900452 326.654724,359.725769 
	C321.524078,365.752655 320.653107,374.261414 315.036896,381.167114 
	C311.795349,374.761597 305.522949,370.560669 307.716614,362.627716 
	C308.186920,360.926971 307.314240,359.372314 306.672638,357.833221 
	C305.321747,354.592712 303.764282,351.229553 303.912476,347.780090 
	C304.145905,342.345642 301.380646,340.898010 296.722076,340.646942 
	C283.919006,339.956970 271.127930,339.043640 258.324005,338.373169 
	C250.696533,337.973755 243.168015,336.897766 235.194214,335.274445 
	C236.064499,341.034698 240.107590,345.022369 241.390656,350.186432 
	C224.912277,347.614349 192.537689,311.157349 190.279129,289.763458 
	C199.858780,295.926666 208.981873,301.480133 219.417557,304.268463 
	C229.595581,306.988037 240.057022,308.445282 251.084946,310.652466 
	C247.882370,314.830383 243.736755,315.702789 239.672333,318.725739 
	C262.292511,322.374329 283.970398,322.408783 306.886749,320.861542 
	C303.078827,314.635406 300.319641,309.112610 296.594604,304.344391 
	C293.456146,300.327026 288.107574,299.840515 283.342285,299.445404 
	C271.714386,298.481232 260.053833,298.310883 248.435837,299.817505 
	C245.862579,300.151215 243.584717,299.590363 240.627533,297.931885 
	C245.288483,292.460388 249.873108,287.801666 255.407211,284.109741 
	C269.645905,274.610840 285.791382,270.918823 302.420410,268.653625 
	C307.891754,267.908295 313.380981,267.873505 318.876251,267.796417 
	C320.789734,267.769562 322.255066,267.573090 323.083801,265.259674 
	C326.670990,255.246002 335.995667,248.923996 347.271667,248.691116 
	C357.630127,248.477203 367.831696,250.312103 378.100861,251.250076 
	C384.889526,251.870148 391.661407,252.679840 398.434906,253.455963 
	C399.932098,253.627518 401.115967,253.205368 401.859253,251.945999 
	C405.953766,245.008728 412.923645,241.993805 419.811554,239.057037 
	C431.272339,234.170593 442.999329,229.843292 452.319092,220.569702 
	C454.573761,224.341660 451.661072,227.604462 452.720245,230.842056 
	C456.333099,230.899673 458.031219,227.297699 461.832855,226.592270 
	C462.736847,231.941910 462.347778,237.126495 461.654205,242.282684 
	C461.193756,245.705643 460.949677,248.855331 464.114563,251.326096 
	C465.931427,252.744507 465.666351,254.528946 463.960144,255.992325 
	C462.572418,257.182495 461.149902,258.348175 459.643921,259.380493 
	C457.584442,260.792267 455.439178,262.080170 453.316925,263.399048 
	C436.538483,273.826080 439.030579,285.382660 452.394806,297.988770 
	C454.923950,300.374481 458.029510,302.137177 460.725372,304.361572 
	C463.137299,306.351654 465.502533,308.468231 466.558960,311.697266 
	C464.379944,314.006683 461.716553,312.854767 459.385712,313.184235 
	C457.569000,313.441040 455.340393,313.259125 454.721710,315.324493 
	C454.053741,317.554230 456.276123,318.459961 457.747467,319.355927 
	C466.518677,324.697113 472.334839,331.906799 472.889404,342.577148 
	C472.915161,343.072662 472.946167,343.577667 472.878143,344.064728 
	C472.835602,344.369751 472.611969,344.649445 472.460846,344.958405 
	C470.771942,345.926605 469.650940,344.558167 468.406586,343.904236 
	C465.439484,342.345062 462.398560,340.934021 459.066498,340.493896 
	C455.805267,340.063141 453.003357,341.246155 451.605927,344.310547 
	C450.300690,347.172607 451.048859,349.948212 453.478271,351.986908 
	C456.282410,354.340057 459.336456,356.397308 462.119019,358.773926 
	C468.980347,364.634369 471.332947,373.895081 468.193512,382.237976 
	C466.295898,382.754211 465.133911,381.296753 463.790863,380.452271 
	C461.960205,379.301086 460.353668,377.748810 458.442261,376.780701 
	C455.206238,375.141754 452.056152,371.674164 448.066467,374.720245 
	C444.760864,377.244019 443.762634,386.352142 446.203949,389.999451 
	C449.216797,394.500549 453.398834,397.882690 457.818909,400.869324 
	C463.436310,404.664948 464.784698,410.338684 465.287750,416.458496 
	C465.537628,419.498596 464.089508,420.422424 461.289093,419.199951 
	C458.239777,417.868744 455.253906,416.355011 452.121674,415.260529 
	C448.424866,413.968811 444.537476,412.935730 441.997070,417.378601 
	C439.878693,421.083344 441.174835,427.409088 444.787384,430.016815 
	C447.340240,431.859528 450.211517,433.263123 452.951233,434.844421 
	C455.125732,436.099396 457.302002,437.382355 458.760834,439.487427 
	C461.092163,442.851532 460.383728,445.400665 456.739685,447.101562 
	C456.137756,447.382538 455.490967,447.565735 454.872375,447.812775 
	C444.401855,451.994293 442.590332,456.786469 447.411224,467.115662 
	C448.358521,469.145386 449.470093,469.806213 451.695343,469.183929 
	C468.686096,464.432709 485.699158,459.761353 502.709106,455.078949 
	C506.405823,454.061310 507.860077,451.111755 508.989990,447.886780 
	C512.657532,437.419159 513.730835,426.487244 514.671814,415.543335 
	C515.484314,406.093903 516.261292,396.639587 516.887756,387.176453 
	C517.512695,377.735046 522.727356,371.209442 529.822388,365.664978 
	C541.243164,356.740082 552.647156,347.790161 563.914978,338.673706 
	C605.257324,305.224915 648.758972,274.660522 691.485901,243.061874 
	C695.799622,239.871704 700.207214,236.734131 706.298096,234.132828 
	C704.185303,240.474121 702.400330,245.592468 700.775391,250.761139 
	C697.858093,260.040558 697.360229,269.346924 700.491150,278.727783 
	C704.856628,291.807861 713.635742,296.923798 727.136719,294.232758 
	C746.098145,290.453308 763.462646,282.220032 781.055420,274.721649 
	C794.379150,269.042816 807.353149,262.545319 820.513245,256.478088 
	C821.911804,255.833267 823.246094,254.446289 825.662720,255.612366 
	C822.379456,259.335968 819.311523,262.957275 816.092957,266.439362 
	C805.807861,277.566498 795.116699,288.332275 787.476990,301.638367 
	C782.985168,309.461792 781.198669,317.724823 782.357422,326.607819 
	C783.833618,337.924286 789.765930,345.989197 800.247803,350.670227 
	C801.843079,351.382660 803.892395,351.493042 804.786194,353.689819 
	C802.144531,356.358490 798.451355,357.150024 795.265076,358.824036 
	C775.785522,369.058197 760.137146,383.540955 748.678345,402.224640 
	C738.158386,419.377625 737.638855,437.778229 743.922913,456.590698 
	C744.397156,458.010345 744.912476,459.418671 745.315552,460.858307 
	C745.438416,461.297180 745.249268,461.823425 745.159851,462.762695 
	C742.041565,462.508209 738.959717,462.303406 735.887756,461.998596 
	C709.442932,459.374847 684.393372,489.475464 686.126709,508.155182 
	C686.944580,516.968872 688.451477,519.386719 696.908813,521.223511 
	C713.981140,524.931274 731.031799,528.737854 748.334839,531.248108 
	C766.562073,533.892456 784.541077,533.554932 801.858704,526.351990 
	C809.526978,523.162537 815.819824,518.518188 818.025635,509.902374 
	C818.354309,508.618591 818.902710,507.358826 818.034607,505.904907 
	C815.915588,504.542114 813.942932,506.125214 812.014832,506.692993 
	C797.395203,510.997986 783.413269,510.081726 770.111694,502.167786 
	C764.618958,498.899750 760.600525,494.374237 757.906677,488.659027 
	C746.075073,463.557678 761.395996,436.699707 789.564209,432.643585 
	C804.362183,430.512695 817.977295,434.046234 831.229126,440.020050 
	C836.479614,442.386871 837.026062,442.362091 838.612427,437.005737 
	C841.111328,428.567780 844.530273,420.399170 846.441711,410.827881 
	C834.557251,412.914429 823.091003,416.682434 810.286804,412.146637 
	C837.586365,379.092712 860.102478,343.032196 886.094543,309.306244 
	C888.350525,352.700043 888.279358,395.998962 896.057617,439.209351 
	C884.548096,435.251862 875.812988,428.609253 870.287842,418.171967 
	C867.978210,418.702881 868.186951,420.555939 867.824341,421.819641 
	C863.833252,435.731781 859.783875,449.630829 856.667480,463.776276 
	C856.197266,465.910553 855.910583,468.025238 856.699341,470.168396 
	C870.161926,506.747986 858.580505,536.524170 830.934448,561.204468 
	C807.717651,581.930664 780.070923,593.738708 749.325256,598.326721 
	C745.053284,598.964233 740.775696,599.564758 736.510193,600.242249 
	C735.911804,600.337219 735.368164,600.776550 734.420654,601.242676 
	C736.831055,606.478088 740.939514,609.796936 745.243469,612.849121 
	C757.905151,621.828308 771.556030,629.167297 784.990356,636.888733 
	C798.191895,644.476501 809.395996,654.291931 815.705322,668.677795 
	C816.172119,669.742188 816.581665,670.839783 816.905579,671.954529 
	C817.027283,672.373291 816.829285,672.884888 816.726501,673.807434 
	C806.404175,670.416931 796.960388,665.313232 786.804810,661.283020 
	C785.172058,667.267883 787.006714,672.316711 787.523132,677.320740 
	C789.738708,698.790649 787.304077,719.861084 782.836670,740.787720 
	C780.684814,750.867310 778.152344,760.865295 775.824890,770.907776 
	C774.257690,777.670166 775.571106,780.372070 782.058411,782.987122 
	C786.530457,784.789795 791.263489,785.972351 795.663391,787.920898 
	C804.063904,791.641296 809.902832,797.653931 811.231567,807.184631 
	C811.321716,807.831177 811.250488,808.524231 811.121216,809.168945 
	C811.033752,809.604553 810.712708,809.993347 810.318359,810.739624 
	C807.002563,809.025024 804.875488,805.675964 801.284729,804.705811 
	C799.581970,804.245728 798.001953,803.247009 796.111450,804.625183 
	C789.599976,809.371765 782.998718,808.100830 776.503418,804.521484 
	C774.759583,803.560425 773.202942,802.265930 771.517273,801.192261 
	C763.103577,795.833130 754.347534,794.623535 745.714172,800.245972 
	C740.887329,803.389404 736.040955,804.406494 731.160522,801.732971 
	C720.596619,795.946167 711.346313,798.220947 702.175110,804.912170 
	C698.446045,807.632935 694.024231,809.417053 689.876160,811.546753 
	C686.342651,813.360962 682.719482,813.765747 678.758667,812.710754 
	C673.302979,811.257507 668.709656,813.846375 664.268738,816.611572 
	C662.880249,817.476135 661.968689,819.067200 660.180786,819.326538 
	C657.703613,814.995422 660.189819,807.074341 665.511169,803.604858 
	C668.227234,801.834106 670.334045,799.925781 671.965820,797.028687 
	C674.043030,793.340576 678.117676,792.141663 681.992004,791.003601 
	C683.685059,790.506226 685.395935,790.069519 688.069397,789.340637 
	C676.243896,786.067383 667.255432,790.252502 659.095520,796.423096 
	C656.943115,795.122009 657.023865,793.352112 656.802551,791.767944 
	C656.027222,786.216370 654.526855,785.350281 648.915955,786.621887 
	C645.443237,787.408813 643.191467,790.501953 639.756836,791.306580 
	C637.433777,783.778931 642.847351,775.377014 651.179810,773.144531 
	C656.894714,771.613403 662.340210,769.019836 668.963867,769.556641 
	C667.691833,766.464722 665.152832,766.310059 663.721558,764.849365 
	C663.027893,764.141418 662.189331,763.496094 661.728577,762.651978 
	C658.316956,756.402405 658.343628,756.396240 651.023743,758.353455 
	C649.933044,758.645020 648.868469,759.348389 647.671143,758.717163 
	C647.263794,752.840515 652.345581,746.770142 658.732239,745.727905 
	C662.425415,745.125183 666.027100,745.015869 669.654175,743.223328 
	C673.238953,741.451599 677.525330,742.175903 680.598877,745.659058 
	C684.896362,750.529114 689.151245,755.439331 693.545776,760.220825 
	C705.030579,772.717102 716.398010,772.174194 730.669617,761.607483 
	C733.967529,759.165588 735.935059,755.689819 736.697754,751.547363 
	C737.522888,747.065613 739.244080,742.817993 741.949768,739.220215 
	C747.147156,732.309143 748.177429,724.346558 748.699707,716.139709 
	C749.525452,703.162415 747.431396,690.627380 743.531067,678.274292 
	C742.154297,673.913818 739.708374,672.243774 735.234924,671.140442 
	C719.720459,667.314209 703.681213,669.595825 688.145325,666.402954 
	C672.889160,663.267639 658.501465,658.519653 645.231262,649.818420 
	C636.459290,644.066711 628.057800,638.470886 622.507629,629.378967 
	C621.350281,627.483032 619.674927,627.016846 617.843018,628.316528 
	C606.375427,636.452332 598.916199,640.902161 600.242371,657.505127 
	C600.967468,666.582886 606.458557,672.677307 613.387024,677.768860 
	C620.190735,682.768677 628.113770,685.465515 635.831970,688.582458 
	C648.367188,693.644836 654.150818,702.904846 653.093811,716.637878 
	C648.864441,714.056519 644.391663,712.417542 639.876282,710.883240 
	C629.157410,707.241211 626.307800,708.308411 620.724792,718.037476 
	C614.070618,729.633240 606.828064,740.793152 597.021423,750.057190 
	C583.479004,762.850464 568.402588,772.853699 549.728149,776.531128 
	C547.098633,777.048950 544.119690,777.202759 541.801086,779.693115 
	C544.473694,782.175720 547.676270,782.266296 550.710022,782.698669 
	C554.498840,783.238708 558.680969,782.771301 562.031372,784.244385 
	C567.775024,786.769775 573.438904,789.921997 578.317200,793.832825 
	C582.420959,797.122559 583.612854,802.308472 582.452637,808.091553 
	C579.175110,807.272888 577.965637,804.567383 575.748779,803.241272 
	C572.891785,801.532227 569.881897,800.004028 566.906616,802.141174 
	C558.733948,808.011597 551.111084,805.092346 543.515320,801.100098 
	C541.314819,799.943542 539.247192,798.480835 537.270691,796.960815 
	C528.656372,790.335999 519.557983,790.018127 510.112152,794.847351 
	C508.345581,795.750549 506.824646,796.258240 504.981079,795.244446 
	C490.438049,787.246826 477.608551,792.779358 465.324402,800.666809 
	C460.798920,803.572571 456.280029,806.261597 451.193207,807.974304 
	C449.401428,808.577576 447.705383,808.865234 446.024567,807.488281 
	C441.842865,804.062317 438.020538,805.402710 434.364960,808.523499 
	C431.970123,810.567749 429.522644,812.545715 425.618256,812.726379 
	C424.524780,804.881104 428.642761,799.410583 433.550201,793.794067 
	C428.455597,792.494812 426.257568,789.460876 426.081909,784.735291 
	C425.946228,781.085205 423.497101,781.154541 420.716949,781.759399 
	C417.029541,782.561829 413.785278,784.966003 409.875092,784.938538 
	C408.089111,777.641724 414.334961,769.293091 422.478424,768.252136 
	C424.775055,767.958618 426.225647,767.314758 427.807770,765.527405 
	C430.468201,762.521790 434.186401,762.369568 437.984650,763.354370 
	C445.013275,765.176636 451.161835,768.904114 457.467407,772.276978 
	C461.851501,774.622070 465.976624,774.281250 470.938751,771.354797 
	C466.005890,766.951111 461.301697,763.301208 455.332581,761.479919 
	C452.311707,760.558289 449.277313,759.672058 446.291931,758.645020 
	C442.704529,757.410889 440.144104,755.378296 440.592010,751.013184 
	C440.855896,748.441406 439.096832,747.620911 436.908356,747.206726 
	C433.377899,746.538574 429.975616,747.600098 426.615784,747.928589 
	C425.138397,746.630432 425.902649,745.427551 426.506439,744.245972 
	C429.930023,737.546387 437.440887,734.005127 444.971344,735.636597 
	C447.420349,736.167175 449.709625,736.979736 451.975739,734.922852 
	C454.065857,733.025696 456.048218,734.449341 457.807098,735.757324 
	C462.901550,739.545776 467.477905,743.921204 471.935120,748.426086 
	C476.582794,753.123413 481.882507,756.759888 488.778778,758.543396 
M814.488831,479.541382 
	C815.888794,477.499847 814.390137,476.097839 813.339050,474.669708 
	C808.377197,467.927734 797.927368,464.566895 789.577026,466.764832 
	C785.250427,467.903625 783.143982,470.648804 782.837158,474.920593 
	C782.542664,479.020782 785.341003,481.051056 788.587585,482.110413 
	C797.292419,484.950775 805.885498,484.938751 814.488831,479.541382 
M329.137543,319.622040 
	C338.068085,318.454315 347.034576,317.438660 355.519531,313.971008 
	C351.430054,304.253906 344.290039,301.033905 334.871033,304.338837 
	C334.589325,306.524933 335.994995,308.762299 335.180786,311.069031 
	C328.317871,308.332611 327.910309,308.553589 325.414886,316.364990 
	C320.423309,315.817413 316.203735,318.505127 311.582184,319.868805 
	C317.207214,321.491699 322.693970,319.508942 329.137543,319.622040 
M361.369385,284.239532 
	C362.087006,283.642487 363.213531,283.333008 362.864655,281.643463 
	C358.305542,283.624390 354.500946,281.538330 350.521149,278.325439 
	C351.790588,284.626373 354.927979,286.254364 361.369385,284.239532 
z"/>
</svg>